<?xml version="1.0" encoding="UTF-8"?>
<svg id="Ebene_2" data-name="Ebene 2" xmlns="http://www.w3.org/2000/svg" viewBox="0 0 300 300.44">
  <defs>
    <style>
      .cls-1 {
        opacity: .5;
      }

      .cls-1, .cls-2 {
        fill: #fff;
      }

      .cls-2 {
        opacity: .3;
      }

      .cls-3 {
        fill: #1d1d1b;
      }

      .cls-4 {
        fill: #f1c411;
      }

      .cls-5 {
        fill: #4db7cf;
      }

      .cls-6 {
        fill: #3288ab;
      }

      .cls-7 {
        opacity: .1;
      }

      .cls-8 {
        fill: #362613;
      }
    </style>
  </defs>
  <g id="Ebene_5" data-name="Ebene 5">
    <g>
      <rect class="cls-4" x="8.16" y="8.69" width="283.79" height="286.58"/>
      <rect class="cls-7" x="150.15" y="7.99" width="146.19" height="289.66"/>
      <path class="cls-3" d="M0,0v300.44h300V0H0ZM290.69,290.19H10.06V9.56h280.63v280.63Z"/>
      <rect class="cls-5" x="44.52" y="79.68" width="71.32" height="60.37"/>
      <rect class="cls-5" x="44.52" y="149.94" width="71.32" height="65.84"/>
      <polygon class="cls-6" points="104.18 111.63 104.18 121.37 56.82 121.37 56.82 111.63 47.61 111.63 47.61 140.05 55.24 140.05 56.82 140.05 104.18 140.05 105.5 140.05 113.39 140.05 113.39 111.63 104.18 111.63"/>
      <path class="cls-8" d="M38.44,74.82v150.07h84.06V74.82H38.44ZM113.41,215.28H47.63v-65.41h65.78v65.41ZM113.41,140.1H47.63v-56.39h65.78v56.39Z"/>
      <polygon class="cls-6" points="104.07 197.19 104.07 186.94 56.59 186.94 56.59 197.19 47.65 197.19 47.65 215.26 113.36 215.26 113.36 197.19 104.07 197.19"/>
      <path class="cls-3" d="M122.62,75.01v149.92H38.51V75.01h84.11M131.42,66.21H29.71v167.52h101.71V66.21h0Z"/>
      <path class="cls-1" d="M131.49,46.82v9.9H29.62v-9.9h-9.13v205.96h9.13v-9.33h101.87v9.33h9.13V46.82h-9.13ZM29.62,233.94V66.24h101.87v167.7H29.62Z"/>
      <polygon class="cls-2" points="10.06 9.56 10.15 24.27 290.54 24.27 290.69 9.56 10.06 9.56"/>
      <polygon class="cls-2" points="10.06 275.47 10.15 290.18 290.54 290.18 290.69 275.47 10.06 275.47"/>
      <rect class="cls-7" x="29.62" y="243.46" width="101.87" height="9.33"/>
      <rect class="cls-7" x="29.62" y="46.79" width="101.87" height="10.08"/>
      <rect class="cls-5" x="185.23" y="79.68" width="71.32" height="60.37"/>
      <rect class="cls-5" x="185.23" y="149.94" width="71.32" height="65.84"/>
      <polygon class="cls-6" points="244.89 111.63 244.89 121.37 197.53 121.37 197.53 111.63 188.32 111.63 188.32 140.05 195.95 140.05 197.53 140.05 244.89 140.05 246.21 140.05 254.1 140.05 254.1 111.63 244.89 111.63"/>
      <path class="cls-8" d="M179.15,74.82v150.07h84.06V74.82h-84.06ZM254.12,215.28h-65.78v-65.41h65.78v65.41ZM254.12,140.1h-65.78v-56.39h65.78v56.39Z"/>
      <polygon class="cls-6" points="244.78 197.19 244.78 186.94 197.3 186.94 197.3 197.19 188.36 197.19 188.36 215.26 254.06 215.26 254.06 197.19 244.78 197.19"/>
      <path class="cls-3" d="M263.33,75.01v149.92h-84.11V75.01h84.11M272.13,66.21h-101.71v167.52h101.71V66.21h0Z"/>
      <path class="cls-1" d="M272.2,46.82v9.9h-101.87v-9.9h-9.13v205.96h9.13v-9.33h101.87v9.33h9.13V46.82h-9.13ZM170.33,233.94V66.24h101.87v167.7h-101.87Z"/>
      <rect class="cls-7" x="170.33" y="243.46" width="101.87" height="9.33"/>
      <rect class="cls-7" x="170.33" y="46.79" width="101.87" height="10.08"/>
    </g>
  </g>
</svg>