<?xml version="1.0" encoding="UTF-8"?>
<svg id="Ebene_2" data-name="Ebene 2" xmlns="http://www.w3.org/2000/svg" viewBox="0 0 465.35 66.55">
  <defs>
    <style>
      .cls-1 {
        fill: #5b5c60;
      }

      .cls-2 {
        fill: #f59c47;
      }

      .cls-3 {
        fill: #fdca58;
      }

      .cls-4 {
        fill: #05060d;
        opacity: .05;
      }
    </style>
  </defs>
  <g id="Ebene_5" data-name="Ebene 5">
    <g>
      <path class="cls-3" d="M460.11,8.06v36.5c0,.2-.01.39-.03.58-.28,2.43-2.31,4.34-4.8,4.42l-20.01.66-24.7.81-28.56.94-25.12.83-28.56.93-25.12.83-28.56.94-23.88.78-28.57.94-25.11.83-28.57.94-25.11.82-28.56.94-24.7.82-28.57.94-25.11.82-28.57.94-7.65.25h-.25s.25-.02.25-.02l-.05-29.56L.15,3.06h454.96c1.87,0,3.5,1.02,4.35,2.53.29.52.5,1.1.59,1.71.04.25.06.5.06.76Z"/>
      <path class="cls-4" d="M460.11,8.06l-.54.07-26.07,3.2-30.17,3.7-26.51,3.25-30.16,3.7-26.51,3.26-30.17,3.7-25.21,3.09-30.16,3.71-26.52,3.25-30.16,3.7-26.51,3.26-30.16,3.7-26.08,3.2-30.16,3.7-26.51,3.25-5.5.68-24.67,3.03-8.09.99-.05-29.56L.15,3.06h454.96c1.87,0,3.5,1.02,4.35,2.53.29.52.5,1.1.59,1.71.04.25.06.5.06.76Z"/>
      <polygon class="cls-1" points="18.61 3.06 17.49 5 5.18 26.31 .2 34.94 .15 3.06 18.61 3.06"/>
      <polygon class="cls-1" points="71.27 3.06 38.51 59.8 36.47 63.33 7.9 64.27 8.34 63.51 43.24 3.06 71.27 3.06"/>
      <polygon class="cls-1" points="123.93 3.06 95.18 52.85 90.15 61.57 61.58 62.51 65.02 56.55 95.9 3.06 123.93 3.06"/>
      <polygon class="cls-1" points="176.18 3.06 151.42 45.95 143.41 59.81 114.85 60.75 121.26 49.65 148.16 3.06 176.18 3.06"/>
      <polygon class="cls-1" points="228.84 3.06 208.09 38.99 197.09 58.05 168.52 58.99 177.93 42.69 200.81 3.06 228.84 3.06"/>
      <polygon class="cls-1" points="281.5 3.06 264.77 32.03 250.77 56.28 222.2 57.22 234.61 35.74 253.47 3.06 281.5 3.06"/>
      <polygon class="cls-1" points="332.95 3.06 320.15 25.24 303.21 54.56 274.65 55.5 289.98 28.94 304.92 3.06 332.95 3.06"/>
      <polygon class="cls-1" points="385.61 3.06 376.82 18.28 356.89 52.8 328.33 53.73 346.66 21.98 357.58 3.06 385.61 3.06"/>
      <polygon class="cls-1" points="438.27 3.06 433.5 11.33 410.57 51.03 382.01 51.97 403.33 15.03 410.24 3.06 438.27 3.06"/>
      <path class="cls-1" d="M460.11,8.06v36.5c0,2.7-2.14,4.91-4.83,5l-20.01.66,24.3-42.09.48-.83c.04.25.06.5.06.76Z"/>
      <path class="cls-2" d="M457.85,0H.14v3.06s.06,31.88.06,31.88l.05,29.56v2.05l457.86-15.05c4.06-.14,7.24-3.43,7.24-7.5V7.5c0-4.14-3.36-7.5-7.5-7.5ZM460.35,44c0,.41-.1.8-.27,1.14-.4.79-1.2,1.33-2.14,1.36l-20.92.69-24.7.81-28.56.94-25.12.83-28.56.94-25.12.82-28.56.94-23.88.79-28.57.94-25.11.82-28.57.94-25.11.83-28.56.94-24.7.81-28.57.94-25.11.83-5.21.17-23.36.77h-.01l-4.4.14-.06-35.08-.03-21.31h452.7c.61,0,1.18.22,1.61.59.54.46.89,1.14.89,1.91v36.5Z"/>
    </g>
  </g>
</svg>