<?xml version="1.0" encoding="UTF-8"?>
<svg id="Ebene_2" data-name="Ebene 2" xmlns="http://www.w3.org/2000/svg" viewBox="0 0 93.74 273.42">
  <defs>
    <style>
      .cls-1 {
        fill: #111110;
      }
    </style>
  </defs>
  <g id="Ebene_5" data-name="Ebene 5">
    <path class="cls-1" d="M55.62,235.63c8.22-3.74,14.96-11.41,16.35-22.98l.03-1.06c-.38-6.15-1.99-11.65-4.8-16.35-2.72-4.54-6.2-6.76-9.28-8.73-2.38-1.52-4.44-2.84-6.31-5.09l-.09-5.07h7.39c3.87,0,7.01-3.14,7.01-7.01v-44.35c0-3.87-3.14-7.01-7.01-7.01h-7.89V0h-10.34v117.98h-7.89c-3.87,0-7.01,3.14-7.01,7.01v44.35c0,3.87,3.14,7.01,7.01,7.01h6.67c-.12,4.51.31,9.14,2.9,12.3,3.2,3.92,6.54,6.05,9.23,7.77,2.54,1.63,4.22,2.7,5.51,4.85,1.75,2.93,2.8,6.46,3.12,10.48-1.53,10.62-10.18,15.11-17.65,14.74-4.02-.19-6.82-1.87-8.69-3.68-1.93-1.86-4.78-2.36-7.11-1.04h-.02c-3.37,1.92-4.03,6.53-1.28,9.25,2.64,2.61,6.42,5.26,11.55,6.51L0,273.42h12.94l34.4-33.33,33.62,33.33h12.78l-38.12-37.79Z"/>
  </g>
</svg>