<?xml version="1.0" encoding="UTF-8"?>
<svg id="Ebene_2" data-name="Ebene 2" xmlns="http://www.w3.org/2000/svg" viewBox="0 0 300 300.54">
  <defs>
    <style>
      .cls-1 {
        fill: #f2f6e5;
      }

      .cls-2 {
        fill: #362615;
      }

      .cls-3 {
        opacity: .5;
      }

      .cls-3, .cls-4, .cls-5 {
        fill: #fff;
      }

      .cls-4 {
        opacity: .3;
      }

      .cls-5 {
        opacity: .4;
      }

      .cls-6, .cls-7 {
        fill: #1d1d1b;
      }

      .cls-8 {
        opacity: .1;
      }

      .cls-9 {
        fill: #e84b3c;
      }

      .cls-7 {
        opacity: .2;
      }
    </style>
  </defs>
  <g id="Ebene_5" data-name="Ebene 5">
    <g>
      <rect class="cls-9" x="8.16" y="8.69" width="283.79" height="286.58"/>
      <path class="cls-6" d="M0,0v300.44h300V0H0ZM290.69,290.19H10.06V9.56h280.63v280.63Z"/>
      <polygon class="cls-4" points="10.06 9.56 10.15 24.27 290.54 24.27 290.69 9.56 10.06 9.56"/>
      <polygon class="cls-4" points="10.06 275.47 10.15 290.18 290.54 290.18 290.69 275.47 10.06 275.47"/>
      <g>
        <polygon class="cls-1" points="228.81 71.15 228.81 300.39 206.05 300.41 198.05 300.42 102.13 300.51 94.13 300.52 71.37 300.54 71.37 70.7 92.01 87.65 208.28 87.65 228.81 71.15"/>
        <path class="cls-2" d="M189.93,157v135.31h-79.74v-135.31h79.74M197.98,148.99h-95.83v151.33h95.83v-151.33h0Z"/>
        <path d="M94.07,141v159.49h8v-151.49h95.92v151.39h8v-159.39h-111.92Z"/>
        <path class="cls-8" d="M181.74,221.91h-63.64v-55.47h63.64v55.47ZM126.1,213.91h47.64v-39.47h-47.64v39.47Z"/>
        <path class="cls-8" d="M181.74,285.21h-63.64v-55.47h63.64v55.47ZM126.1,277.21h47.64v-39.47h-47.64v39.47Z"/>
        <polygon class="cls-6" points="222.93 112.01 71.19 112.01 71.19 120.1 222.93 120.1 222.93 112.01 222.93 112.01"/>
        <polygon class="cls-7" points="222.72 84.36 207.11 91.79 95.22 91.63 81.87 85.87 71.19 86.48 71.19 103.6 222.93 103.6 222.93 95.51 222.72 84.36"/>
        <polygon class="cls-3" points="222.93 120.21 71.19 120.21 71.19 128.3 222.93 128.3 222.93 120.21 222.93 120.21"/>
        <polygon class="cls-3" points="222.93 103.74 71.19 103.74 71.19 111.83 222.93 111.83 222.93 103.74 222.93 103.74"/>
        <path class="cls-6" d="M208.3,87.62h-116.34l-20.65-16.95v229.84l22.77-.02h8s95.98-.1,95.98-.1h8s22.77-.03,22.77-.03V71.12l-20.54,16.5ZM220.84,292.37h-14.77s-8,.02-8,.02l-95.98.09h-8s-14.77.02-14.77.02V87.59l7.56,6.21,2.22,1.82h122.03l2.19-1.77,7.52-6.04v204.56Z"/>
        <polygon class="cls-6" points="221.79 254.57 205.79 254.57 205.79 262.67 221.79 262.67 221.79 254.57 221.79 254.57"/>
        <polygon class="cls-6" points="95.01 254.57 79 254.57 79 262.67 95.01 262.67 95.01 254.57 95.01 254.57"/>
        <rect class="cls-5" x="126.1" y="174.44" width="47.64" height="39.47"/>
        <rect class="cls-5" x="126.1" y="237.7" width="47.64" height="39.47"/>
      </g>
      <rect class="cls-1" x="228.87" y="262.56" width="61.88" height="27.7"/>
      <rect class="cls-1" x="9.96" y="262.56" width="61.22" height="27.7"/>
      <polygon class="cls-6" points="290.83 254.23 228.85 254.23 228.85 262.33 290.83 262.33 290.83 254.23 290.83 254.23"/>
      <polygon class="cls-6" points="72.1 254.23 10.12 254.23 10.12 262.33 72.1 262.33 72.1 254.23 72.1 254.23"/>
      <rect class="cls-8" x="150.23" y="7.99" width="146.19" height="289.66"/>
    </g>
  </g>
</svg>